<?xml version="1.0" encoding="utf-8"?>
<!-- Generator: Adobe Illustrator 25.4.1, SVG Export Plug-In . SVG Version: 6.00 Build 0)  -->
<svg version="1.1" id="Layer_1" xmlns="http://www.w3.org/2000/svg" xmlns:xlink="http://www.w3.org/1999/xlink" x="0px" y="0px"
	 viewBox="0 0 306.7 136" style="enable-background:new 0 0 306.7 136;" xml:space="preserve" width="307" height="136">
<style type="text/css">
	.st0{fill:#1A1A1A;}
	.st1{fill:#FFFFFF;}
	.st2{fill:#F3F3F3;}
	.st3{fill:none;}
	.st4{fill:#F2F2F2;}
	.st5{fill-rule:evenodd;clip-rule:evenodd;fill:#FFFFFF;}
	.st6{fill-rule:evenodd;clip-rule:evenodd;}
	.st7{fill-rule:evenodd;clip-rule:evenodd;stroke:#000000;stroke-width:0.9122;stroke-linejoin:round;stroke-miterlimit:10;}
	.st8{stroke:#000000;stroke-width:0.9122;stroke-linejoin:round;stroke-miterlimit:10;}
	.st9{opacity:0.65;}
	.st10{opacity:0.36;fill:#FFFFFF;}
	.st11{opacity:0.1;fill:#FFFFFF;}
	.st12{opacity:3.000000e-02;fill:#FFFFFF;}
	.st13{opacity:1.000000e-02;fill:#FFFFFF;}
</style>
<g>
	<rect x="106.3" y="18.8" class="st5" width="15.3" height="97.1"/>
	<path class="st1" d="M146.8,32.4h15.3c14.3,0,20.4,5.6,20.4,17.3c0,11.6-6,17.2-20.4,17.2h-15.3V32.4z M146.8,80h17.7l21.7,35.9
		h16.7l-23.4-38.6c12.1-4.4,18.8-14.1,18.8-27.7c0-18.4-13-30.9-35.7-30.9h-31.1v97.1h15.3V80L146.8,80z"/>
	<path class="st1" d="M225.4,102.4v-70h11.3c25.1,0,36.1,14.4,36.1,35c0,20.5-11,35-36.1,35H225.4z M288.7,67.4
		c0-28.7-19.4-48.6-51.1-48.6h-27.4v97.1h27.4C269.4,115.9,288.7,96,288.7,67.4"/>
	<path class="st1" d="M42,77.5c20.9-8.6,52.5,10.7,45.2,39.7c5.5-5.1,7.7-11.9,8.9-19.2c3.6-22.5-18.1-36.4-34-36.2
		c1.5-2.9,2.3-8.1,2.1-13.4c-0.5-15.5-13.1-29.5-29.2-29c-2.8,0.1-10,0-17.1,5.1C37.7,19.3,61.5,47.7,42,77.5"/>
</g>
</svg>
