<svg xmlns="http://www.w3.org/2000/svg" xmlns:xlink="http://www.w3.org/1999/xlink" width="1024" zoomAndPan="magnify" viewBox="0 0 768 767.999994" height="1024" preserveAspectRatio="xMidYMid meet" version="1.0"><defs><clipPath id="ee3c910ba7"><path d="M 48 0.875 L 75 0.875 L 75 33 L 48 33 Z M 48 0.875 " clip-rule="nonzero"/></clipPath><clipPath id="3202799a71"><path d="M 0 134 L 21 134 L 21 162 L 0 162 Z M 0 134 " clip-rule="nonzero"/></clipPath><clipPath id="8996a5558e"><path d="M 0 172 L 26 172 L 26 199 L 0 199 Z M 0 172 " clip-rule="nonzero"/></clipPath><clipPath id="4de6db2246"><path d="M 193.304688 344.015625 L 227.65625 344.015625 L 227.65625 372.585938 L 193.304688 372.585938 Z M 193.304688 344.015625 " clip-rule="nonzero"/></clipPath><clipPath id="1b895fd139"><path d="M 530.585938 0.875 L 767.039062 0.875 L 767.039062 372.585938 L 530.585938 372.585938 Z M 530.585938 0.875 " clip-rule="nonzero"/></clipPath><clipPath id="da7d7c4db8"><path d="M 156 0.875 L 183 0.875 L 183 33 L 156 33 Z M 156 0.875 " clip-rule="nonzero"/></clipPath><clipPath id="fd1e982a90"><path d="M 210 134 L 236.960938 134 L 236.960938 162 L 210 162 Z M 210 134 " clip-rule="nonzero"/></clipPath><clipPath id="7168cf6784"><path d="M 3.582031 344.015625 L 37.933594 344.015625 L 37.933594 372.585938 L 3.582031 372.585938 Z M 3.582031 344.015625 " clip-rule="nonzero"/></clipPath><clipPath id="9a9ce8d532"><rect x="0" width="238" y="0" height="373"/></clipPath><clipPath id="3527c6225d"><rect x="0" width="768" y="0" height="375"/></clipPath></defs><g transform="matrix(1, 0, 0, 1, 0, 197)"><g clip-path="url(#3527c6225d)"><g clip-path="url(#ee3c910ba7)"><path fill="#000000" d="M 74.734375 0.875 C 74.734375 0.875 74.472656 1.839844 73.976562 3.402344 C 73.726562 4.183594 73.417969 5.113281 73.058594 6.144531 C 72.878906 6.660156 72.683594 7.199219 72.476562 7.757812 C 72.371094 8.039062 72.265625 8.324219 72.15625 8.613281 C 72.050781 8.910156 71.945312 9.207031 71.835938 9.511719 C 71.402344 10.726562 70.917969 12 70.382812 13.285156 C 70.113281 13.929688 69.835938 14.574219 69.539062 15.21875 L 69.316406 15.699219 L 69.105469 16.195312 C 68.957031 16.519531 68.8125 16.847656 68.664062 17.175781 C 67.472656 19.785156 66.015625 22.234375 64.453125 24.382812 C 63.65625 25.441406 62.828125 26.34375 61.984375 27.121094 C 61.773438 27.3125 61.5625 27.496094 61.351562 27.675781 C 61.148438 27.859375 60.945312 28.03125 60.738281 28.199219 C 60.328125 28.535156 59.917969 28.839844 59.507812 29.121094 C 57.867188 30.230469 56.238281 30.914062 54.789062 31.332031 C 53.355469 31.757812 52.136719 31.941406 51.246094 32 C 50.363281 32.058594 49.835938 32.007812 49.835938 32.007812 C 49.835938 32.007812 49.570312 31.546875 49.269531 30.703125 C 48.976562 29.863281 48.625 28.628906 48.515625 27.109375 C 48.417969 25.601562 48.527344 23.785156 49.082031 21.757812 C 49.21875 21.25 49.386719 20.730469 49.582031 20.199219 C 49.679688 19.933594 49.785156 19.664062 49.898438 19.390625 C 50.019531 19.128906 50.152344 18.859375 50.289062 18.585938 C 50.847656 17.503906 51.542969 16.382812 52.402344 15.242188 C 54.089844 12.929688 56.433594 10.886719 58.832031 9.039062 C 59.132812 8.8125 59.433594 8.585938 59.738281 8.363281 L 60.195312 8.035156 L 60.667969 7.722656 C 61.296875 7.308594 61.925781 6.914062 62.554688 6.535156 C 63.804688 5.777344 65.039062 5.085938 66.207031 4.464844 C 66.5 4.3125 66.789062 4.164062 67.070312 4.015625 C 67.363281 3.878906 67.648438 3.746094 67.929688 3.613281 C 68.492188 3.355469 69.035156 3.113281 69.546875 2.890625 C 70.574219 2.445312 71.496094 2.074219 72.261719 1.773438 C 73.796875 1.179688 74.734375 0.875 74.734375 0.875 " fill-opacity="1" fill-rule="nonzero"/></g><path fill="#000000" d="M 72.90625 41.574219 C 72.90625 41.574219 70.875 39.917969 67.945312 38.332031 C 66.480469 37.539062 64.789062 36.765625 63.003906 36.25 C 62.113281 35.992188 61.1875 35.789062 60.273438 35.691406 C 59.363281 35.59375 58.445312 35.59375 57.542969 35.714844 C 55.734375 35.957031 54.144531 36.664062 52.78125 37.585938 C 52.441406 37.816406 52.113281 38.0625 51.800781 38.316406 C 51.492188 38.570312 51.210938 38.84375 50.9375 39.121094 C 50.394531 39.671875 49.902344 40.246094 49.472656 40.808594 C 48.605469 41.9375 47.96875 43.023438 47.546875 43.828125 C 47.332031 44.222656 47.195312 44.566406 47.097656 44.800781 C 47.003906 45.035156 46.957031 45.167969 46.957031 45.167969 C 46.957031 45.167969 47.480469 47.011719 48.921875 48.628906 C 50.355469 50.253906 52.714844 51.636719 56.25 50.964844 C 56.691406 50.882812 57.140625 50.769531 57.59375 50.632812 C 57.820312 50.5625 58.050781 50.488281 58.277344 50.40625 C 58.511719 50.328125 58.75 50.246094 58.984375 50.15625 C 59.929688 49.804688 60.886719 49.371094 61.828125 48.886719 C 62.765625 48.402344 63.695312 47.871094 64.582031 47.320312 C 65.457031 46.757812 66.371094 46.222656 67.1875 45.679688 C 68.839844 44.601562 70.25 43.5625 71.253906 42.800781 C 72.292969 42.058594 72.90625 41.574219 72.90625 41.574219 " fill-opacity="1" fill-rule="nonzero"/><path fill="#000000" d="M 28.652344 27.289062 C 28.652344 27.289062 29.363281 27.621094 30.460938 28.269531 C 31.5625 28.910156 33.054688 29.871094 34.621094 31.097656 C 37.761719 33.550781 41.214844 37.101562 42.5625 41.316406 C 43.277344 43.449219 43.417969 45.5625 43.214844 47.53125 C 43.121094 48.519531 42.914062 49.457031 42.703125 50.375 C 42.492188 51.289062 42.226562 52.152344 41.933594 52.953125 C 41.351562 54.554688 40.660156 55.890625 40.128906 56.839844 C 39.625 57.800781 39.25 58.359375 39.25 58.359375 C 39.25 58.359375 37.117188 59.148438 34.515625 58.96875 C 31.921875 58.777344 28.847656 57.648438 27.132812 53.429688 C 26.703125 52.371094 26.378906 51.167969 26.152344 49.871094 C 25.953125 48.585938 25.847656 47.207031 25.816406 45.78125 C 25.78125 44.355469 25.824219 42.886719 25.914062 41.421875 C 26.023438 39.972656 26.21875 38.546875 26.421875 37.171875 C 26.628906 35.800781 26.863281 34.492188 27.097656 33.296875 C 27.207031 32.699219 27.347656 32.144531 27.476562 31.621094 C 27.609375 31.097656 27.730469 30.613281 27.84375 30.164062 C 28.308594 28.386719 28.652344 27.289062 28.652344 27.289062 " fill-opacity="1" fill-rule="nonzero"/><path fill="#000000" d="M 63.65625 65.605469 C 63.65625 65.605469 62.976562 65.199219 61.828125 64.617188 C 60.675781 64.035156 59.058594 63.277344 57.175781 62.578125 C 55.289062 61.882812 53.136719 61.246094 50.917969 60.929688 C 48.683594 60.605469 46.4375 60.628906 44.316406 61.226562 C 42.203125 61.828125 40.414062 62.945312 38.960938 64.289062 C 37.550781 65.65625 36.445312 67.242188 35.609375 68.738281 C 34.746094 70.226562 34.261719 71.671875 33.925781 72.710938 C 33.597656 73.757812 33.46875 74.421875 33.46875 74.421875 C 33.46875 74.421875 34.421875 76.507812 36.4375 78.140625 C 37.453125 78.964844 38.738281 79.679688 40.269531 79.996094 C 41.789062 80.308594 43.59375 80.238281 45.652344 79.523438 C 46.683594 79.167969 47.726562 78.667969 48.761719 78.074219 C 49.277344 77.777344 49.796875 77.453125 50.304688 77.113281 C 50.816406 76.769531 51.320312 76.410156 51.847656 76.050781 C 52.886719 75.316406 53.894531 74.535156 54.859375 73.738281 C 55.339844 73.335938 55.808594 72.933594 56.265625 72.535156 C 56.492188 72.332031 56.714844 72.132812 56.9375 71.9375 C 57.164062 71.738281 57.386719 71.542969 57.609375 71.351562 C 59.382812 69.8125 60.875 68.371094 61.921875 67.308594 C 62.460938 66.785156 62.898438 66.359375 63.199219 66.066406 C 63.492188 65.765625 63.65625 65.605469 63.65625 65.605469 " fill-opacity="1" fill-rule="nonzero"/><path fill="#000000" d="M 11.84375 59.871094 C 11.84375 59.871094 12.613281 60.09375 13.828125 60.558594 C 15.042969 61.03125 16.703125 61.746094 18.480469 62.722656 C 22.023438 64.667969 26.109375 67.679688 28.214844 71.722656 C 30.257812 75.746094 30.171875 80.128906 29.457031 83.523438 C 29.160156 85.234375 28.71875 86.707031 28.347656 87.753906 C 27.976562 88.800781 27.675781 89.417969 27.675781 89.417969 C 27.675781 89.417969 27.164062 89.703125 26.320312 90.019531 C 25.492188 90.339844 24.335938 90.695312 23.019531 90.820312 C 21.703125 90.949219 20.226562 90.851562 18.765625 90.230469 C 17.3125 89.609375 15.855469 88.460938 14.640625 86.476562 C 13.457031 84.5 12.621094 81.863281 12.046875 78.992188 C 11.976562 78.628906 11.90625 78.265625 11.84375 77.902344 C 11.789062 77.539062 11.742188 77.175781 11.695312 76.808594 C 11.601562 76.074219 11.527344 75.335938 11.460938 74.59375 C 11.335938 73.113281 11.261719 71.632812 11.226562 70.207031 C 11.199219 69.492188 11.210938 68.804688 11.230469 68.136719 C 11.25 67.46875 11.273438 66.820312 11.300781 66.203125 C 11.359375 64.96875 11.4375 63.851562 11.511719 62.914062 C 11.589844 61.972656 11.65625 61.203125 11.726562 60.683594 C 11.800781 60.160156 11.84375 59.871094 11.84375 59.871094 " fill-opacity="1" fill-rule="nonzero"/><path fill="#000000" d="M 53.472656 92.636719 C 53.472656 92.636719 52.722656 92.34375 51.46875 91.949219 C 50.210938 91.558594 48.457031 91.0625 46.445312 90.671875 C 42.425781 89.898438 37.386719 89.554688 33.261719 91.449219 C 32.742188 91.683594 32.265625 91.953125 31.816406 92.246094 C 31.367188 92.542969 30.945312 92.859375 30.542969 93.199219 C 29.746094 93.878906 29.042969 94.636719 28.429688 95.4375 C 27.820312 96.238281 27.277344 97.078125 26.84375 97.929688 C 26.421875 98.785156 26.078125 99.644531 25.792969 100.46875 C 25.226562 102.125 24.894531 103.640625 24.734375 104.746094 C 24.59375 105.855469 24.585938 106.542969 24.585938 106.542969 C 24.585938 106.542969 25.917969 108.488281 28.238281 109.792969 C 30.550781 111.113281 33.859375 111.765625 37.71875 109.621094 C 38.683594 109.089844 39.636719 108.410156 40.566406 107.636719 C 41.53125 106.867188 42.472656 106.007812 43.378906 105.09375 C 44.28125 104.183594 45.152344 103.222656 45.96875 102.257812 C 46.820312 101.300781 47.636719 100.34375 48.378906 99.417969 C 49.125 98.496094 49.804688 97.605469 50.40625 96.792969 C 51.03125 95.988281 51.59375 95.261719 52.046875 94.644531 C 52.957031 93.417969 53.472656 92.636719 53.472656 92.636719 " fill-opacity="1" fill-rule="nonzero"/><path fill="#000000" d="M 0.375 95.558594 C 0.375 95.558594 1.1875 95.652344 2.488281 95.914062 C 3.789062 96.183594 5.578125 96.625 7.539062 97.308594 C 9.496094 97.992188 11.621094 98.921875 13.601562 100.136719 C 15.585938 101.359375 17.382812 102.859375 18.820312 104.726562 C 20.238281 106.585938 21.074219 108.617188 21.527344 110.621094 C 21.585938 110.871094 21.632812 111.121094 21.679688 111.371094 C 21.734375 111.625 21.78125 111.875 21.824219 112.121094 C 21.910156 112.621094 21.976562 113.113281 22.023438 113.597656 C 22.117188 114.570312 22.140625 115.511719 22.117188 116.398438 C 22.097656 117.28125 22.019531 118.113281 21.9375 118.859375 C 21.875 119.609375 21.785156 120.277344 21.695312 120.835938 C 21.511719 121.953125 21.328125 122.628906 21.328125 122.628906 C 21.328125 122.628906 19.484375 124.125 16.855469 124.835938 C 14.230469 125.53125 10.8125 125.472656 7.71875 121.902344 C 6.945312 121.007812 6.226562 119.929688 5.566406 118.726562 C 5.238281 118.125 4.921875 117.492188 4.617188 116.835938 C 4.320312 116.175781 4.066406 115.5 3.808594 114.800781 C 3.304688 113.40625 2.855469 111.941406 2.460938 110.464844 C 2.261719 109.726562 2.078125 108.988281 1.90625 108.253906 C 1.75 107.523438 1.621094 106.800781 1.492188 106.085938 C 1.242188 104.660156 1.039062 103.289062 0.878906 102.03125 C 0.714844 100.773438 0.578125 99.632812 0.527344 98.675781 C 0.398438 96.761719 0.375 95.558594 0.375 95.558594 " fill-opacity="1" fill-rule="nonzero"/><path fill="#000000" d="M 47.804688 121.460938 C 47.804688 121.460938 47 121.289062 45.671875 121.105469 C 44.339844 120.925781 42.488281 120.726562 40.394531 120.675781 C 36.195312 120.578125 31.105469 121.09375 27.308594 123.703125 C 26.363281 124.359375 25.542969 125.109375 24.835938 125.925781 C 24.132812 126.746094 23.585938 127.628906 23.113281 128.539062 C 22.644531 129.453125 22.269531 130.390625 21.96875 131.320312 C 21.675781 132.253906 21.429688 133.171875 21.3125 134.054688 C 21.046875 135.816406 21.003906 137.398438 21.03125 138.535156 C 21.054688 139.675781 21.144531 140.371094 21.144531 140.371094 C 21.144531 140.371094 21.246094 140.476562 21.445312 140.652344 C 21.648438 140.828125 21.9375 141.074219 22.3125 141.34375 C 23.058594 141.890625 24.125 142.542969 25.40625 143 C 27.976562 143.925781 31.414062 144.003906 34.890625 141.183594 C 35.320312 140.832031 35.757812 140.449219 36.191406 140.03125 C 36.621094 139.617188 37.042969 139.167969 37.457031 138.703125 C 38.28125 137.765625 39.066406 136.738281 39.804688 135.667969 C 40.175781 135.132812 40.523438 134.585938 40.886719 134.039062 C 41.253906 133.488281 41.609375 132.9375 41.953125 132.382812 C 42.640625 131.277344 43.273438 130.175781 43.851562 129.121094 C 44.40625 128.0625 44.984375 127.0625 45.472656 126.148438 C 45.960938 125.230469 46.382812 124.40625 46.722656 123.710938 C 47.066406 123.019531 47.332031 122.453125 47.511719 122.0625 C 47.699219 121.671875 47.804688 121.460938 47.804688 121.460938 " fill-opacity="1" fill-rule="nonzero"/><g clip-path="url(#3202799a71)"><path fill="#000000" d="M -5.628906 134.152344 C -5.628906 134.152344 -4.796875 134.105469 -3.441406 134.144531 C -2.089844 134.179688 -0.210938 134.3125 1.878906 134.65625 C 6.058594 135.347656 11.09375 136.898438 14.515625 140.144531 C 16.265625 141.769531 17.492188 143.667969 18.3125 145.609375 C 18.519531 146.089844 18.703125 146.578125 18.863281 147.066406 C 18.941406 147.308594 19.015625 147.554688 19.085938 147.796875 C 19.164062 148.035156 19.238281 148.277344 19.308594 148.519531 C 19.582031 149.480469 19.78125 150.421875 19.921875 151.320312 C 20.0625 152.214844 20.148438 153.0625 20.195312 153.832031 C 20.242188 154.601562 20.246094 155.292969 20.269531 155.871094 C 20.296875 157.023438 20.238281 157.738281 20.238281 157.738281 C 20.238281 157.738281 18.664062 159.578125 16.160156 160.761719 C 13.65625 161.933594 10.214844 162.488281 6.441406 159.441406 C 5.5 158.679688 4.578125 157.722656 3.691406 156.628906 C 2.8125 155.53125 2.023438 154.292969 1.25 152.976562 C 0.484375 151.65625 -0.238281 150.257812 -0.90625 148.839844 C -1.253906 148.132812 -1.527344 147.417969 -1.816406 146.707031 C -2.101562 145.996094 -2.375 145.289062 -2.628906 144.589844 C -3.144531 143.195312 -3.601562 141.84375 -3.996094 140.605469 C -4.382812 139.363281 -4.660156 138.234375 -4.90625 137.277344 C -5.382812 135.363281 -5.628906 134.152344 -5.628906 134.152344 " fill-opacity="1" fill-rule="nonzero"/></g><path fill="#000000" d="M 47.140625 151.292969 C 47.140625 151.292969 46.300781 151.265625 44.933594 151.316406 C 43.566406 151.363281 41.667969 151.488281 39.558594 151.804688 C 37.445312 152.121094 35.121094 152.632812 32.894531 153.476562 C 30.652344 154.320312 28.570312 155.492188 26.914062 157.136719 C 26.085938 157.957031 25.402344 158.855469 24.84375 159.800781 C 24.5625 160.273438 24.316406 160.753906 24.09375 161.246094 C 23.875 161.738281 23.671875 162.234375 23.53125 162.734375 C 22.929688 164.726562 22.726562 166.769531 22.726562 168.589844 C 22.726562 169.042969 22.730469 169.488281 22.761719 169.910156 C 22.800781 170.332031 22.84375 170.738281 22.894531 171.121094 C 23 171.890625 23.121094 172.574219 23.242188 173.140625 C 23.480469 174.28125 23.703125 174.960938 23.703125 174.960938 C 23.703125 174.960938 24.195312 175.320312 25.027344 175.734375 C 25.859375 176.152344 27.023438 176.625 28.40625 176.851562 C 29.785156 177.082031 31.339844 177.070312 32.921875 176.566406 C 34.507812 176.058594 36.09375 175.0625 37.644531 173.335938 C 39.1875 171.609375 40.464844 169.34375 41.570312 166.9375 C 42.15625 165.730469 42.6875 164.488281 43.171875 163.261719 C 43.410156 162.648438 43.636719 162.035156 43.851562 161.433594 C 44.070312 160.832031 44.261719 160.242188 44.484375 159.660156 C 45.335938 157.339844 45.976562 155.25 46.40625 153.742188 C 46.882812 152.230469 47.140625 151.292969 47.140625 151.292969 " fill-opacity="1" fill-rule="nonzero"/><g clip-path="url(#8996a5558e)"><path fill="#000000" d="M -4.359375 173.46875 C -4.359375 173.46875 -3.53125 173.269531 -2.164062 173.070312 C -0.796875 172.867188 1.113281 172.667969 3.277344 172.644531 C 7.605469 172.59375 12.953125 173.261719 17 175.910156 C 18.015625 176.574219 18.882812 177.335938 19.675781 178.148438 C 20.480469 178.957031 21.175781 179.828125 21.773438 180.730469 C 22.371094 181.628906 22.875 182.554688 23.296875 183.476562 C 23.507812 183.9375 23.691406 184.398438 23.878906 184.851562 C 24.070312 185.300781 24.242188 185.746094 24.398438 186.183594 C 25.019531 187.929688 25.378906 189.523438 25.582031 190.6875 C 25.6875 191.269531 25.746094 191.742188 25.789062 192.070312 C 25.835938 192.394531 25.855469 192.578125 25.855469 192.578125 C 25.855469 192.578125 24.628906 194.699219 22.335938 196.339844 C 20.039062 197.964844 16.6875 199.140625 12.316406 196.761719 C 11.769531 196.464844 11.21875 196.117188 10.671875 195.726562 C 10.136719 195.332031 9.605469 194.890625 9.074219 194.417969 C 8.015625 193.46875 6.96875 192.371094 5.949219 191.1875 C 5.4375 190.59375 4.9375 189.980469 4.445312 189.347656 L 4.078125 188.875 L 3.734375 188.390625 C 3.507812 188.0625 3.28125 187.738281 3.054688 187.410156 C 2.164062 186.097656 1.320312 184.753906 0.539062 183.441406 C 0.152344 182.789062 -0.21875 182.140625 -0.574219 181.511719 C -0.921875 180.882812 -1.226562 180.261719 -1.523438 179.671875 C -2.113281 178.484375 -2.625 177.402344 -3.042969 176.480469 C -3.882812 174.644531 -4.359375 173.46875 -4.359375 173.46875 " fill-opacity="1" fill-rule="nonzero"/></g><path fill="#000000" d="M 51.746094 181.28125 C 51.746094 181.28125 50.894531 181.40625 49.527344 181.699219 C 48.164062 181.996094 46.28125 182.457031 44.222656 183.152344 C 42.160156 183.847656 39.921875 184.777344 37.839844 186.019531 C 36.800781 186.640625 35.804688 187.34375 34.890625 188.132812 C 34.433594 188.527344 33.996094 188.945312 33.585938 189.386719 C 33.171875 189.824219 32.785156 190.292969 32.453125 190.777344 C 31.097656 192.71875 30.394531 194.867188 30.101562 196.992188 C 30.027344 197.523438 29.976562 198.054688 29.949219 198.578125 C 29.933594 199.101562 29.953125 199.613281 29.984375 200.121094 C 30.042969 201.128906 30.175781 202.105469 30.347656 203.019531 C 30.699219 204.839844 31.179688 206.417969 31.660156 207.503906 C 32.121094 208.601562 32.472656 209.242188 32.472656 209.242188 C 32.472656 209.242188 34.726562 210.320312 37.546875 210.289062 C 40.375 210.273438 43.757812 209.113281 46.1875 205.097656 C 47.410156 203.089844 48.230469 200.601562 48.984375 197.964844 C 49.707031 195.335938 50.140625 192.625 50.597656 190.140625 C 51.019531 187.664062 51.222656 185.472656 51.464844 183.863281 C 51.667969 182.261719 51.746094 181.28125 51.746094 181.28125 " fill-opacity="1" fill-rule="nonzero"/><path fill="#000000" d="M 4.042969 212.789062 C 4.042969 212.789062 4.839844 212.441406 6.175781 211.992188 C 7.515625 211.546875 9.394531 211 11.558594 210.589844 C 13.71875 210.175781 16.164062 209.902344 18.628906 209.972656 C 21.089844 210.046875 23.628906 210.441406 25.914062 211.40625 C 27.058594 211.886719 28.089844 212.484375 29.019531 213.164062 C 29.953125 213.84375 30.765625 214.609375 31.554688 215.394531 C 33.101562 216.972656 34.285156 218.734375 35.183594 220.394531 C 35.402344 220.8125 35.617188 221.214844 35.824219 221.605469 C 36.027344 221.996094 36.214844 222.375 36.386719 222.738281 C 36.726562 223.464844 37 224.128906 37.214844 224.691406 C 37.644531 225.820312 37.832031 226.539062 37.832031 226.539062 C 37.832031 226.539062 37.609375 227.132812 37.132812 227.984375 C 36.894531 228.410156 36.59375 228.902344 36.222656 229.417969 C 35.855469 229.929688 35.4375 230.457031 34.9375 230.972656 C 33.9375 231.996094 32.648438 232.945312 31.003906 233.449219 C 29.363281 233.945312 27.332031 234.019531 24.972656 233.191406 C 22.601562 232.371094 20.046875 230.75 17.542969 228.75 C 15.125 226.714844 12.773438 224.289062 10.71875 221.945312 C 8.746094 219.570312 7.054688 217.285156 5.863281 215.597656 C 5.253906 214.757812 4.824219 214.042969 4.515625 213.554688 C 4.210938 213.0625 4.042969 212.789062 4.042969 212.789062 " fill-opacity="1" fill-rule="nonzero"/><path fill="#000000" d="M 61.746094 210.550781 C 61.746094 210.550781 60.914062 210.828125 59.597656 211.371094 C 58.277344 211.914062 56.472656 212.71875 54.53125 213.785156 C 50.652344 215.921875 46.226562 219.117188 44.132812 223.542969 C 43.871094 224.09375 43.652344 224.652344 43.472656 225.214844 C 43.292969 225.773438 43.144531 226.34375 43.058594 226.898438 C 42.875 228.011719 42.828125 229.125 42.886719 230.210938 C 42.941406 231.300781 43.097656 232.363281 43.320312 233.378906 C 43.433594 233.886719 43.558594 234.382812 43.703125 234.859375 C 43.859375 235.332031 44.03125 235.789062 44.203125 236.226562 C 44.90625 237.988281 45.714844 239.460938 46.347656 240.488281 C 46.664062 241.003906 46.9375 241.410156 47.132812 241.6875 C 47.332031 241.957031 47.453125 242.097656 47.453125 242.097656 C 47.453125 242.097656 49.933594 242.761719 52.773438 242.210938 C 55.617188 241.671875 58.804688 239.886719 60.472656 235.445312 C 60.6875 234.886719 60.859375 234.3125 61.027344 233.703125 C 61.199219 233.089844 61.347656 232.453125 61.476562 231.808594 C 61.730469 230.507812 61.902344 229.148438 62.007812 227.777344 C 62.0625 227.089844 62.097656 226.402344 62.121094 225.714844 C 62.128906 225.371094 62.148438 225.027344 62.164062 224.675781 C 62.179688 224.332031 62.195312 223.984375 62.207031 223.636719 C 62.25 222.261719 62.246094 220.914062 62.214844 219.640625 C 62.199219 219.007812 62.175781 218.390625 62.148438 217.800781 C 62.117188 217.207031 62.125 216.621094 62.101562 216.074219 C 62.066406 214.976562 62.019531 214 61.964844 213.179688 C 61.863281 211.546875 61.746094 210.550781 61.746094 210.550781 " fill-opacity="1" fill-rule="nonzero"/><path fill="#000000" d="M 19.578125 250.789062 C 19.578125 250.789062 20.3125 250.296875 21.574219 249.605469 C 22.835938 248.914062 24.625 248.023438 26.726562 247.21875 C 30.929688 245.605469 36.363281 244.335938 41.257812 245.464844 C 43.753906 246.003906 45.886719 247.089844 47.6875 248.421875 C 48.136719 248.757812 48.566406 249.105469 48.976562 249.464844 C 49.386719 249.824219 49.800781 250.175781 50.183594 250.542969 C 50.957031 251.273438 51.648438 252.03125 52.257812 252.773438 C 53.488281 254.257812 54.382812 255.710938 55.058594 256.734375 C 55.707031 257.777344 56.039062 258.464844 56.039062 258.464844 C 56.039062 258.464844 55.601562 260.996094 53.964844 263.445312 C 52.316406 265.878906 49.484375 268.257812 44.382812 267.511719 C 41.839844 267.128906 38.902344 266.015625 36.105469 264.394531 C 34.6875 263.597656 33.269531 262.703125 31.886719 261.761719 C 31.542969 261.523438 31.199219 261.28125 30.859375 261.042969 C 30.523438 260.800781 30.199219 260.550781 29.875 260.300781 C 29.230469 259.796875 28.597656 259.292969 27.988281 258.785156 C 25.539062 256.769531 23.367188 254.808594 21.929688 253.28125 C 20.457031 251.773438 19.578125 250.789062 19.578125 250.789062 " fill-opacity="1" fill-rule="nonzero"/><path fill="#000000" d="M 77.097656 238.011719 C 77.097656 238.011719 76.316406 238.445312 75.09375 239.230469 C 73.871094 240.015625 72.207031 241.15625 70.449219 242.585938 C 68.695312 244.019531 66.84375 245.746094 65.265625 247.722656 C 63.6875 249.695312 62.433594 251.886719 61.804688 254.289062 C 61.492188 255.488281 61.355469 256.679688 61.359375 257.847656 C 61.359375 258.429688 61.394531 259.007812 61.457031 259.574219 C 61.523438 260.140625 61.644531 260.683594 61.773438 261.222656 C 62.308594 263.371094 63.234375 265.34375 64.21875 267.011719 C 65.253906 268.640625 66.363281 269.953125 67.199219 270.859375 C 68.035156 271.769531 68.609375 272.269531 68.609375 272.269531 C 68.609375 272.269531 69.246094 272.332031 70.234375 272.25 C 71.234375 272.164062 72.574219 271.933594 73.945312 271.390625 C 75.320312 270.84375 76.726562 269.980469 77.890625 268.65625 C 79.054688 267.324219 79.957031 265.539062 80.386719 263.15625 C 80.847656 260.746094 80.800781 257.96875 80.488281 255.199219 C 80.40625 254.503906 80.324219 253.800781 80.242188 253.09375 C 80.15625 252.390625 80.054688 251.691406 79.945312 251.003906 C 79.722656 249.625 79.460938 248.289062 79.183594 247.03125 C 78.707031 244.464844 78.179688 242.222656 77.757812 240.621094 C 77.535156 239.828125 77.398438 239.160156 77.277344 238.710938 C 77.164062 238.265625 77.097656 238.011719 77.097656 238.011719 " fill-opacity="1" fill-rule="nonzero"/><path fill="#000000" d="M 42.265625 286.226562 C 42.265625 286.226562 42.90625 285.597656 44.042969 284.667969 C 45.179688 283.734375 46.804688 282.507812 48.761719 281.308594 C 52.675781 278.902344 57.910156 276.597656 63.035156 276.808594 C 63.679688 276.832031 64.292969 276.90625 64.914062 276.996094 C 65.535156 277.082031 66.140625 277.203125 66.726562 277.355469 C 67.898438 277.65625 69.003906 278.074219 70.039062 278.566406 C 71.074219 279.058594 72.023438 279.640625 72.929688 280.238281 C 73.84375 280.820312 74.683594 281.445312 75.441406 282.066406 C 76.203125 282.695312 76.882812 283.324219 77.472656 283.914062 C 78.0625 284.503906 78.5625 285.0625 79 285.515625 C 79.851562 286.433594 80.316406 287.050781 80.316406 287.050781 C 80.316406 287.050781 80.367188 289.671875 79.195312 292.4375 C 78.609375 293.820312 77.710938 295.230469 76.308594 296.335938 C 74.90625 297.441406 73.003906 298.234375 70.367188 298.34375 C 69.046875 298.398438 67.609375 298.277344 66.09375 298.019531 C 64.585938 297.753906 63.050781 297.308594 61.46875 296.785156 C 59.890625 296.257812 58.289062 295.628906 56.714844 294.949219 C 55.175781 294.234375 53.675781 293.460938 52.246094 292.683594 C 50.820312 291.902344 49.457031 291.132812 48.253906 290.382812 C 47.066406 289.613281 46.007812 288.898438 45.117188 288.28125 C 43.34375 287.050781 42.265625 286.226562 42.265625 286.226562 " fill-opacity="1" fill-rule="nonzero"/><path fill="#000000" d="M 97.53125 262.550781 C 97.53125 262.550781 96.832031 263.132812 95.753906 264.148438 C 94.679688 265.167969 93.226562 266.628906 91.738281 268.394531 C 90.253906 270.164062 88.730469 272.242188 87.523438 274.519531 C 86.925781 275.652344 86.386719 276.859375 86.011719 278.0625 C 85.632812 279.269531 85.378906 280.511719 85.296875 281.773438 C 85.214844 283.03125 85.308594 284.25 85.535156 285.414062 C 85.765625 286.574219 86.105469 287.714844 86.589844 288.726562 C 87.542969 290.773438 88.847656 292.574219 90.160156 294.050781 C 91.503906 295.492188 92.871094 296.589844 93.882812 297.34375 C 94.894531 298.089844 95.566406 298.484375 95.566406 298.484375 C 95.566406 298.484375 95.726562 298.46875 96.011719 298.417969 C 96.300781 298.367188 96.703125 298.292969 97.195312 298.144531 C 98.179688 297.867188 99.476562 297.378906 100.746094 296.570312 C 102.015625 295.761719 103.261719 294.625 104.167969 293.070312 C 105.074219 291.515625 105.644531 289.546875 105.609375 287.089844 C 105.609375 284.582031 105.027344 281.8125 104.183594 279.101562 C 103.964844 278.429688 103.765625 277.71875 103.539062 277.035156 C 103.316406 276.351562 103.082031 275.671875 102.839844 275 C 102.355469 273.664062 101.828125 272.390625 101.324219 271.171875 C 100.363281 268.695312 99.398438 266.558594 98.671875 265.042969 C 97.988281 263.484375 97.53125 262.550781 97.53125 262.550781 " fill-opacity="1" fill-rule="nonzero"/><path fill="#000000" d="M 71.855469 317.523438 C 71.855469 317.523438 72.378906 316.765625 73.335938 315.613281 C 74.292969 314.464844 75.6875 312.921875 77.417969 311.347656 C 80.878906 308.1875 85.679688 304.871094 90.855469 304.101562 C 92.140625 303.921875 93.433594 303.859375 94.664062 303.9375 C 95.898438 304.015625 97.085938 304.21875 98.214844 304.519531 C 98.777344 304.664062 99.328125 304.839844 99.863281 305.027344 C 100.132812 305.121094 100.394531 305.222656 100.65625 305.324219 C 100.917969 305.421875 101.183594 305.519531 101.4375 305.625 C 102.46875 306.035156 103.429688 306.5 104.308594 306.984375 C 106.070312 307.945312 107.496094 309 108.542969 309.738281 C 109.574219 310.496094 110.160156 311.03125 110.160156 311.03125 C 110.160156 311.03125 110.714844 313.652344 110.078125 316.652344 C 109.753906 318.148438 109.128906 319.742188 107.941406 321.117188 C 106.753906 322.496094 105 323.65625 102.382812 324.269531 C 99.769531 324.875 96.5 324.917969 93.15625 324.425781 C 91.476562 324.195312 89.75 323.871094 88.042969 323.488281 L 87.40625 323.34375 C 87.195312 323.289062 86.988281 323.230469 86.78125 323.175781 C 86.363281 323.058594 85.949219 322.941406 85.539062 322.828125 C 84.71875 322.585938 83.90625 322.339844 83.117188 322.085938 C 81.535156 321.578125 80.027344 321.058594 78.667969 320.542969 C 77.328125 320 76.125 319.484375 75.113281 319.039062 C 73.09375 318.140625 71.855469 317.523438 71.855469 317.523438 " fill-opacity="1" fill-rule="nonzero"/><path fill="#000000" d="M 122.652344 283.164062 C 122.652344 283.164062 122.0625 283.882812 121.183594 285.109375 C 120.304688 286.339844 119.132812 288.082031 117.984375 290.140625 C 116.835938 292.199219 115.710938 294.578125 114.941406 297.09375 C 114.175781 299.609375 113.804688 302.207031 114.121094 304.777344 C 114.730469 309.945312 118.164062 313.707031 121.382812 316.125 C 123.015625 317.300781 124.585938 318.15625 125.742188 318.714844 C 126.320312 318.996094 126.796875 319.203125 127.128906 319.339844 C 127.464844 319.464844 127.65625 319.523438 127.65625 319.523438 C 127.65625 319.523438 130.253906 318.707031 132.472656 316.589844 C 133.585938 315.535156 134.609375 314.160156 135.214844 312.421875 C 135.820312 310.691406 136.007812 308.597656 135.496094 306.136719 C 135.371094 305.519531 135.199219 304.902344 135 304.265625 C 134.808594 303.621094 134.582031 302.96875 134.328125 302.316406 C 133.816406 301.015625 133.199219 299.703125 132.519531 298.421875 C 132.179688 297.773438 131.8125 297.15625 131.457031 296.507812 C 131.105469 295.863281 130.738281 295.222656 130.367188 294.597656 C 129.628906 293.351562 128.863281 292.160156 128.117188 291.050781 C 127.738281 290.503906 127.394531 289.933594 127.046875 289.410156 C 126.699219 288.882812 126.359375 288.378906 126.035156 287.902344 C 125.386719 286.953125 124.789062 286.117188 124.28125 285.425781 C 123.765625 284.746094 123.378906 284.152344 123.09375 283.769531 C 122.808594 283.378906 122.652344 283.164062 122.652344 283.164062 " fill-opacity="1" fill-rule="nonzero"/><path fill="#000000" d="M 107.625 343.1875 C 107.625 343.1875 108.003906 342.328125 108.738281 340.988281 C 109.476562 339.652344 110.570312 337.839844 111.996094 335.921875 C 114.847656 332.078125 118.996094 327.859375 124.035156 326.070312 C 126.578125 325.136719 129.109375 324.894531 131.484375 325.0625 C 132.660156 325.164062 133.839844 325.285156 134.945312 325.511719 C 136.050781 325.730469 137.097656 326.015625 138.074219 326.335938 C 140.003906 327 141.691406 327.667969 142.863281 328.246094 C 144.039062 328.8125 144.726562 329.242188 144.726562 329.242188 C 144.726562 329.242188 144.992188 329.875 145.253906 330.902344 C 145.382812 331.414062 145.511719 332.023438 145.605469 332.703125 C 145.699219 333.371094 145.765625 334.109375 145.753906 334.882812 C 145.730469 336.433594 145.421875 338.140625 144.5 339.757812 C 144.039062 340.566406 143.425781 341.355469 142.613281 342.082031 C 141.792969 342.824219 140.789062 343.476562 139.542969 344.03125 C 138.292969 344.585938 136.859375 345.015625 135.300781 345.34375 C 134.523438 345.503906 133.710938 345.640625 132.878906 345.753906 C 132.460938 345.808594 132.035156 345.859375 131.609375 345.90625 C 131.183594 345.941406 130.757812 345.96875 130.328125 345.992188 C 128.601562 346.078125 126.8125 346.078125 125.03125 346.015625 C 124.140625 345.984375 123.25 345.941406 122.371094 345.878906 C 121.503906 345.792969 120.644531 345.695312 119.804688 345.59375 C 116.445312 345.167969 113.359375 344.640625 111.183594 344.089844 C 108.988281 343.574219 107.625 343.1875 107.625 343.1875 " fill-opacity="1" fill-rule="nonzero"/><path fill="#000000" d="M 151.761719 298.910156 C 151.761719 298.910156 151.3125 299.742188 150.671875 301.144531 C 150.035156 302.546875 149.203125 304.519531 148.453125 306.808594 C 146.957031 311.390625 145.832031 317.164062 147.464844 322.203125 C 147.671875 322.832031 147.914062 323.433594 148.1875 324.007812 C 148.460938 324.585938 148.769531 325.136719 149.113281 325.636719 C 149.796875 326.652344 150.589844 327.566406 151.445312 328.382812 C 152.296875 329.199219 153.214844 329.921875 154.144531 330.5625 C 155.082031 331.175781 156.046875 331.675781 156.976562 332.113281 C 157.90625 332.550781 158.804688 332.910156 159.628906 333.203125 C 160.453125 333.496094 161.199219 333.734375 161.84375 333.875 C 163.125 334.171875 163.929688 334.273438 163.929688 334.273438 C 163.929688 334.273438 166.359375 332.957031 168.15625 330.414062 C 169.058594 329.144531 169.808594 327.570312 170.070312 325.707031 C 170.332031 323.851562 170.109375 321.710938 169.117188 319.332031 C 168.621094 318.140625 167.957031 316.945312 167.183594 315.769531 C 166.414062 314.585938 165.550781 313.363281 164.617188 312.203125 C 163.691406 311.035156 162.695312 309.929688 161.707031 308.835938 C 160.726562 307.71875 159.738281 306.664062 158.78125 305.6875 C 158.300781 305.199219 157.832031 304.734375 157.375 304.289062 C 157.261719 304.179688 157.148438 304.070312 157.035156 303.960938 C 156.925781 303.847656 156.816406 303.734375 156.707031 303.625 C 156.492188 303.402344 156.277344 303.1875 156.070312 302.976562 C 155.242188 302.144531 154.484375 301.414062 153.847656 300.816406 C 153.207031 300.214844 152.683594 299.746094 152.320312 299.421875 C 152.140625 299.261719 152 299.132812 151.90625 299.042969 C 151.8125 298.957031 151.761719 298.910156 151.761719 298.910156 " fill-opacity="1" fill-rule="nonzero"/><path fill="#000000" d="M 148.554688 361.929688 C 148.554688 361.929688 148.761719 360.992188 149.234375 359.507812 C 149.707031 358.023438 150.445312 355.992188 151.492188 353.796875 C 152.539062 351.597656 153.890625 349.238281 155.566406 347.085938 C 156.40625 346.003906 157.316406 345 158.328125 344.046875 C 159.335938 343.101562 160.425781 342.25 161.605469 341.539062 C 162.78125 340.828125 163.992188 340.296875 165.203125 339.902344 C 165.8125 339.707031 166.421875 339.546875 167.027344 339.421875 C 167.636719 339.285156 168.25 339.160156 168.855469 339.074219 C 170.066406 338.898438 171.257812 338.828125 172.40625 338.839844 C 172.980469 338.84375 173.542969 338.871094 174.09375 338.914062 C 174.640625 338.953125 175.175781 339.015625 175.699219 339.058594 C 177.785156 339.261719 179.585938 339.660156 180.878906 340.011719 C 181.519531 340.1875 182.035156 340.347656 182.390625 340.46875 C 182.746094 340.578125 182.941406 340.644531 182.941406 340.644531 C 182.941406 340.644531 184.523438 342.917969 185.105469 346.042969 C 185.394531 347.605469 185.429688 349.378906 184.835938 351.179688 C 184.238281 352.980469 183.007812 354.804688 180.722656 356.457031 C 180.152344 356.867188 179.527344 357.269531 178.859375 357.625 C 178.195312 357.980469 177.484375 358.3125 176.738281 358.621094 C 175.242188 359.242188 173.601562 359.78125 171.882812 360.246094 C 170.15625 360.734375 168.371094 361.050781 166.574219 361.328125 C 164.78125 361.597656 162.976562 361.808594 161.242188 361.964844 C 157.792969 362.191406 154.613281 362.199219 152.292969 362.164062 C 149.992188 362.0625 148.554688 361.929688 148.554688 361.929688 " fill-opacity="1" fill-rule="nonzero"/><path fill="#000000" d="M 183.921875 308.855469 C 183.921875 308.855469 183.640625 309.78125 183.277344 311.3125 C 182.917969 312.847656 182.480469 314.984375 182.191406 317.414062 C 181.617188 322.273438 181.625 328.332031 184.265625 333.054688 C 185.59375 335.367188 187.453125 337.117188 189.484375 338.441406 C 189.738281 338.605469 189.996094 338.765625 190.253906 338.917969 C 190.515625 339.058594 190.777344 339.191406 191.042969 339.324219 C 191.570312 339.582031 192.101562 339.816406 192.632812 340.027344 C 193.695312 340.449219 194.757812 340.785156 195.773438 341.046875 C 196.28125 341.179688 196.777344 341.292969 197.257812 341.394531 C 197.738281 341.480469 198.203125 341.539062 198.648438 341.597656 C 199.53125 341.703125 200.332031 341.761719 201 341.792969 C 202.339844 341.855469 203.164062 341.800781 203.164062 341.800781 C 203.164062 341.800781 203.703125 341.359375 204.402344 340.550781 C 205.105469 339.757812 205.964844 338.539062 206.605469 337.082031 C 207.25 335.613281 207.675781 333.878906 207.558594 331.972656 C 207.5 331.019531 207.308594 330.023438 206.945312 329 C 206.578125 327.976562 206.046875 326.933594 205.3125 325.820312 C 204.578125 324.714844 203.675781 323.640625 202.667969 322.605469 C 202.164062 322.089844 201.632812 321.582031 201.082031 321.085938 C 200.535156 320.585938 199.960938 320.121094 199.386719 319.609375 C 198.226562 318.613281 197.019531 317.667969 195.8125 316.78125 C 195.210938 316.339844 194.609375 315.914062 194.011719 315.503906 C 193.417969 315.070312 192.835938 314.648438 192.261719 314.25 C 189.972656 312.640625 187.875 311.375 186.375 310.367188 C 184.867188 309.398438 183.921875 308.855469 183.921875 308.855469 " fill-opacity="1" fill-rule="nonzero"/><g clip-path="url(#4de6db2246)"><path fill="#000000" d="M 193.382812 372.585938 C 193.382812 372.585938 193.402344 371.605469 193.574219 370.023438 C 193.746094 368.445312 194.070312 366.265625 194.675781 363.859375 C 195.878906 359.035156 198.183594 353.277344 202.316406 349.539062 C 204.378906 347.703125 206.722656 346.382812 209.070312 345.582031 C 210.242188 345.167969 211.421875 344.898438 212.570312 344.660156 C 213.722656 344.414062 214.84375 344.253906 215.910156 344.15625 C 218.035156 343.960938 219.917969 344.046875 221.277344 344.074219 C 222.636719 344.132812 223.46875 344.257812 223.46875 344.257812 C 223.46875 344.257812 225.519531 346.234375 226.753906 349.253906 C 227.363281 350.765625 227.765625 352.539062 227.542969 354.453125 C 227.316406 356.371094 226.464844 358.433594 224.519531 360.527344 C 222.570312 362.609375 219.699219 364.585938 216.441406 366.132812 C 214.8125 366.925781 213.085938 367.660156 211.339844 368.332031 C 209.597656 368.960938 207.835938 369.503906 206.125 369.996094 C 205.269531 370.238281 204.429688 370.46875 203.613281 370.679688 C 203.203125 370.785156 202.800781 370.886719 202.40625 370.988281 C 202.011719 371.070312 201.625 371.15625 201.246094 371.234375 C 199.734375 371.546875 198.355469 371.800781 197.1875 372.003906 C 196.023438 372.207031 195.070312 372.355469 194.410156 372.449219 C 194.082031 372.496094 193.824219 372.53125 193.652344 372.558594 C 193.476562 372.574219 193.382812 372.585938 193.382812 372.585938 " fill-opacity="1" fill-rule="nonzero"/></g><g clip-path="url(#1b895fd139)"><g transform="matrix(1, 0, 0, 1, 530, -0.000000000000056843)"><g clip-path="url(#9a9ce8d532)"><g clip-path="url(#da7d7c4db8)"><path fill="#000000" d="M 156.503906 0.875 C 156.503906 0.875 156.765625 1.839844 157.265625 3.402344 C 157.511719 4.183594 157.820312 5.113281 158.179688 6.144531 C 158.363281 6.660156 158.554688 7.199219 158.761719 7.757812 C 158.867188 8.039062 158.976562 8.324219 159.082031 8.613281 C 159.1875 8.910156 159.292969 9.207031 159.402344 9.511719 C 159.835938 10.726562 160.320312 12 160.859375 13.285156 C 161.125 13.929688 161.40625 14.574219 161.699219 15.21875 L 161.921875 15.699219 L 162.132812 16.195312 C 162.28125 16.519531 162.429688 16.847656 162.574219 17.175781 C 163.765625 19.785156 165.222656 22.234375 166.785156 24.382812 C 167.582031 25.441406 168.410156 26.34375 169.253906 27.121094 C 169.464844 27.3125 169.675781 27.496094 169.886719 27.675781 C 170.089844 27.859375 170.296875 28.03125 170.5 28.199219 C 170.910156 28.535156 171.320312 28.839844 171.730469 29.121094 C 173.375 30.230469 175.003906 30.914062 176.449219 31.332031 C 177.882812 31.757812 179.101562 31.941406 179.992188 32 C 180.875 32.058594 181.40625 32.007812 181.40625 32.007812 C 181.40625 32.007812 181.667969 31.546875 181.96875 30.703125 C 182.261719 29.863281 182.617188 28.628906 182.722656 27.109375 C 182.824219 25.601562 182.710938 23.785156 182.15625 21.757812 C 182.019531 21.25 181.855469 20.730469 181.65625 20.199219 C 181.558594 19.933594 181.453125 19.664062 181.339844 19.390625 C 181.21875 19.128906 181.085938 18.859375 180.949219 18.585938 C 180.390625 17.503906 179.695312 16.382812 178.835938 15.242188 C 177.148438 12.929688 174.804688 10.886719 172.410156 9.039062 C 172.109375 8.8125 171.804688 8.585938 171.5 8.363281 L 171.042969 8.035156 L 170.570312 7.722656 C 169.941406 7.308594 169.3125 6.914062 168.6875 6.535156 C 167.433594 5.777344 166.199219 5.085938 165.03125 4.464844 C 164.738281 4.3125 164.449219 4.164062 164.167969 4.015625 C 163.875 3.878906 163.589844 3.746094 163.308594 3.613281 C 162.746094 3.355469 162.203125 3.113281 161.691406 2.890625 C 160.664062 2.445312 159.746094 2.074219 158.976562 1.773438 C 157.441406 1.179688 156.503906 0.875 156.503906 0.875 " fill-opacity="1" fill-rule="nonzero"/></g><path fill="#000000" d="M 158.332031 41.574219 C 158.332031 41.574219 160.363281 39.917969 163.292969 38.332031 C 164.757812 37.539062 166.449219 36.765625 168.234375 36.25 C 169.125 35.992188 170.050781 35.789062 170.964844 35.691406 C 171.875 35.59375 172.792969 35.59375 173.695312 35.714844 C 175.503906 35.957031 177.09375 36.664062 178.457031 37.585938 C 178.796875 37.816406 179.125 38.0625 179.4375 38.316406 C 179.746094 38.570312 180.027344 38.84375 180.300781 39.121094 C 180.847656 39.671875 181.335938 40.246094 181.765625 40.808594 C 182.632812 41.9375 183.269531 43.023438 183.691406 43.828125 C 183.90625 44.222656 184.042969 44.566406 184.140625 44.800781 C 184.234375 45.035156 184.28125 45.167969 184.28125 45.167969 C 184.28125 45.167969 183.757812 47.011719 182.320312 48.628906 C 180.882812 50.253906 178.523438 51.636719 174.988281 50.964844 C 174.546875 50.882812 174.097656 50.769531 173.644531 50.632812 C 173.417969 50.5625 173.191406 50.488281 172.960938 50.40625 C 172.726562 50.328125 172.488281 50.246094 172.253906 50.15625 C 171.308594 49.804688 170.351562 49.371094 169.410156 48.886719 C 168.472656 48.402344 167.546875 47.871094 166.65625 47.320312 C 165.78125 46.757812 164.867188 46.222656 164.050781 45.679688 C 162.398438 44.601562 160.988281 43.5625 159.984375 42.800781 C 158.945312 42.058594 158.332031 41.574219 158.332031 41.574219 " fill-opacity="1" fill-rule="nonzero"/><path fill="#000000" d="M 202.585938 27.289062 C 202.585938 27.289062 201.878906 27.621094 200.777344 28.269531 C 199.675781 28.910156 198.1875 29.871094 196.617188 31.097656 C 193.476562 33.550781 190.023438 37.101562 188.675781 41.316406 C 187.960938 43.449219 187.820312 45.5625 188.023438 47.53125 C 188.117188 48.519531 188.324219 49.457031 188.535156 50.375 C 188.746094 51.289062 189.011719 52.152344 189.304688 52.953125 C 189.886719 54.554688 190.578125 55.890625 191.109375 56.839844 C 191.617188 57.800781 191.992188 58.359375 191.992188 58.359375 C 191.992188 58.359375 194.121094 59.148438 196.722656 58.96875 C 199.316406 58.777344 202.390625 57.648438 204.109375 53.429688 C 204.535156 52.371094 204.859375 51.167969 205.085938 49.871094 C 205.285156 48.585938 205.390625 47.207031 205.421875 45.78125 C 205.457031 44.355469 205.417969 42.886719 205.324219 41.421875 C 205.214844 39.972656 205.019531 38.546875 204.816406 37.171875 C 204.609375 35.800781 204.375 34.492188 204.140625 33.296875 C 204.03125 32.699219 203.890625 32.144531 203.765625 31.621094 C 203.632812 31.097656 203.507812 30.613281 203.394531 30.164062 C 202.929688 28.386719 202.585938 27.289062 202.585938 27.289062 " fill-opacity="1" fill-rule="nonzero"/><path fill="#000000" d="M 167.582031 65.605469 C 167.582031 65.605469 168.261719 65.199219 169.410156 64.617188 C 170.5625 64.035156 172.179688 63.277344 174.066406 62.578125 C 175.949219 61.882812 178.101562 61.246094 180.320312 60.929688 C 182.554688 60.605469 184.804688 60.628906 186.921875 61.226562 C 189.035156 61.828125 190.824219 62.945312 192.277344 64.289062 C 193.691406 65.65625 194.792969 67.242188 195.628906 68.738281 C 196.492188 70.226562 196.976562 71.671875 197.3125 72.710938 C 197.640625 73.757812 197.769531 74.421875 197.769531 74.421875 C 197.769531 74.421875 196.816406 76.507812 194.800781 78.140625 C 193.785156 78.964844 192.5 79.679688 190.96875 79.996094 C 189.449219 80.308594 187.644531 80.238281 185.585938 79.523438 C 184.554688 79.167969 183.511719 78.667969 182.476562 78.074219 C 181.960938 77.777344 181.445312 77.453125 180.933594 77.113281 C 180.425781 76.769531 179.917969 76.410156 179.390625 76.050781 C 178.355469 75.316406 177.34375 74.535156 176.378906 73.738281 C 175.898438 73.335938 175.429688 72.933594 174.972656 72.535156 C 174.746094 72.332031 174.523438 72.132812 174.300781 71.9375 C 174.074219 71.738281 173.851562 71.542969 173.628906 71.351562 C 171.855469 69.8125 170.367188 68.371094 169.316406 67.308594 C 168.777344 66.785156 168.34375 66.359375 168.039062 66.066406 C 167.746094 65.765625 167.582031 65.605469 167.582031 65.605469 " fill-opacity="1" fill-rule="nonzero"/><path fill="#000000" d="M 219.394531 59.871094 C 219.394531 59.871094 218.625 60.09375 217.410156 60.558594 C 216.195312 61.03125 214.535156 61.746094 212.757812 62.722656 C 209.214844 64.667969 205.128906 67.679688 203.027344 71.722656 C 200.980469 75.746094 201.066406 80.128906 201.78125 83.523438 C 202.078125 85.234375 202.523438 86.707031 202.894531 87.753906 C 203.261719 88.800781 203.5625 89.417969 203.5625 89.417969 C 203.5625 89.417969 204.074219 89.703125 204.917969 90.019531 C 205.746094 90.339844 206.902344 90.695312 208.21875 90.820312 C 209.535156 90.949219 211.011719 90.851562 212.472656 90.230469 C 213.925781 89.609375 215.386719 88.460938 216.597656 86.476562 C 217.78125 84.5 218.617188 81.863281 219.191406 78.992188 C 219.265625 78.628906 219.332031 78.265625 219.394531 77.902344 C 219.449219 77.539062 219.5 77.175781 219.542969 76.808594 C 219.636719 76.074219 219.714844 75.335938 219.777344 74.59375 C 219.902344 73.113281 219.976562 71.632812 220.015625 70.207031 C 220.039062 69.492188 220.027344 68.804688 220.007812 68.136719 C 219.988281 67.46875 219.964844 66.820312 219.9375 66.203125 C 219.878906 64.96875 219.800781 63.851562 219.726562 62.914062 C 219.648438 61.972656 219.582031 61.203125 219.511719 60.683594 C 219.4375 60.160156 219.394531 59.871094 219.394531 59.871094 " fill-opacity="1" fill-rule="nonzero"/><path fill="#000000" d="M 177.765625 92.636719 C 177.765625 92.636719 178.515625 92.34375 179.773438 91.949219 C 181.027344 91.558594 182.78125 91.0625 184.792969 90.671875 C 188.8125 89.898438 193.851562 89.554688 197.976562 91.449219 C 198.496094 91.683594 198.972656 91.953125 199.421875 92.246094 C 199.871094 92.542969 200.296875 92.859375 200.695312 93.199219 C 201.492188 93.878906 202.195312 94.636719 202.808594 95.4375 C 203.417969 96.238281 203.960938 97.078125 204.394531 97.929688 C 204.816406 98.785156 205.164062 99.644531 205.445312 100.46875 C 206.011719 102.125 206.34375 103.640625 206.503906 104.746094 C 206.644531 105.855469 206.652344 106.542969 206.652344 106.542969 C 206.652344 106.542969 205.320312 108.488281 203 109.792969 C 200.6875 111.113281 197.382812 111.765625 193.519531 109.621094 C 192.554688 109.089844 191.601562 108.410156 190.671875 107.636719 C 189.707031 106.867188 188.765625 106.007812 187.863281 105.09375 C 186.957031 104.183594 186.089844 103.222656 185.269531 102.257812 C 184.417969 101.300781 183.601562 100.34375 182.859375 99.417969 C 182.113281 98.496094 181.433594 97.605469 180.832031 96.792969 C 180.207031 95.988281 179.648438 95.261719 179.191406 94.644531 C 178.28125 93.417969 177.765625 92.636719 177.765625 92.636719 " fill-opacity="1" fill-rule="nonzero"/><path fill="#000000" d="M 230.863281 95.558594 C 230.863281 95.558594 230.050781 95.652344 228.75 95.914062 C 227.449219 96.183594 225.660156 96.625 223.703125 97.308594 C 221.742188 97.992188 219.617188 98.921875 217.640625 100.136719 C 215.652344 101.359375 213.859375 102.859375 212.417969 104.726562 C 211 106.585938 210.164062 108.617188 209.710938 110.621094 C 209.65625 110.871094 209.605469 111.121094 209.558594 111.371094 C 209.503906 111.625 209.457031 111.875 209.414062 112.121094 C 209.328125 112.621094 209.265625 113.113281 209.214844 113.597656 C 209.121094 114.570312 209.097656 115.511719 209.121094 116.398438 C 209.144531 117.28125 209.21875 118.113281 209.300781 118.859375 C 209.367188 119.609375 209.457031 120.277344 209.546875 120.835938 C 209.726562 121.953125 209.914062 122.628906 209.914062 122.628906 C 209.914062 122.628906 211.757812 124.125 214.382812 124.835938 C 217.011719 125.53125 220.425781 125.472656 223.519531 121.902344 C 224.292969 121.007812 225.011719 119.929688 225.671875 118.726562 C 226 118.125 226.316406 117.492188 226.621094 116.835938 C 226.917969 116.175781 227.171875 115.5 227.429688 114.800781 C 227.933594 113.40625 228.382812 111.941406 228.777344 110.464844 C 228.976562 109.726562 229.160156 108.988281 229.332031 108.253906 C 229.488281 107.523438 229.617188 106.800781 229.746094 106.085938 C 229.996094 104.660156 230.199219 103.289062 230.359375 102.03125 C 230.523438 100.773438 230.660156 99.632812 230.710938 98.675781 C 230.839844 96.761719 230.863281 95.558594 230.863281 95.558594 " fill-opacity="1" fill-rule="nonzero"/><path fill="#000000" d="M 183.433594 121.460938 C 183.433594 121.460938 184.242188 121.289062 185.570312 121.105469 C 186.898438 120.925781 188.75 120.726562 190.84375 120.675781 C 195.042969 120.578125 200.132812 121.09375 203.929688 123.703125 C 204.875 124.359375 205.695312 125.109375 206.402344 125.925781 C 207.105469 126.746094 207.652344 127.628906 208.125 128.539062 C 208.597656 129.453125 208.96875 130.390625 209.269531 131.320312 C 209.5625 132.253906 209.808594 133.171875 209.925781 134.054688 C 210.191406 135.816406 210.234375 137.398438 210.207031 138.535156 C 210.183594 139.675781 210.09375 140.371094 210.09375 140.371094 C 210.09375 140.371094 209.992188 140.476562 209.792969 140.652344 C 209.59375 140.828125 209.300781 141.074219 208.925781 141.34375 C 208.179688 141.890625 207.113281 142.542969 205.832031 143 C 203.261719 143.925781 199.824219 144.003906 196.347656 141.183594 C 195.917969 140.832031 195.480469 140.449219 195.046875 140.03125 C 194.617188 139.617188 194.195312 139.167969 193.78125 138.703125 C 192.957031 137.765625 192.171875 136.738281 191.433594 135.667969 C 191.0625 135.132812 190.714844 134.585938 190.355469 134.039062 C 189.984375 133.488281 189.628906 132.9375 189.285156 132.382812 C 188.597656 131.277344 187.964844 130.175781 187.386719 129.121094 C 186.832031 128.0625 186.253906 127.0625 185.765625 126.148438 C 185.277344 125.230469 184.855469 124.40625 184.515625 123.710938 C 184.171875 123.019531 183.90625 122.453125 183.726562 122.0625 C 183.539062 121.671875 183.433594 121.460938 183.433594 121.460938 " fill-opacity="1" fill-rule="nonzero"/><g clip-path="url(#fd1e982a90)"><path fill="#000000" d="M 236.871094 134.152344 C 236.871094 134.152344 236.039062 134.105469 234.683594 134.144531 C 233.328125 134.179688 231.453125 134.3125 229.359375 134.65625 C 225.179688 135.347656 220.144531 136.898438 216.722656 140.144531 C 214.976562 141.769531 213.746094 143.667969 212.925781 145.609375 C 212.71875 146.089844 212.539062 146.578125 212.378906 147.066406 C 212.296875 147.308594 212.222656 147.554688 212.152344 147.796875 C 212.074219 148.035156 212 148.28125 211.933594 148.519531 C 211.65625 149.480469 211.457031 150.421875 211.316406 151.320312 C 211.175781 152.214844 211.089844 153.0625 211.042969 153.832031 C 210.996094 154.601562 210.992188 155.292969 210.96875 155.871094 C 210.941406 157.023438 211.003906 157.738281 211.003906 157.738281 C 211.003906 157.738281 212.574219 159.578125 215.078125 160.761719 C 217.582031 161.933594 221.023438 162.488281 224.796875 159.441406 C 225.742188 158.679688 226.660156 157.722656 227.546875 156.628906 C 228.425781 155.53125 229.214844 154.292969 229.988281 152.976562 C 230.753906 151.65625 231.476562 150.257812 232.144531 148.839844 C 232.492188 148.132812 232.765625 147.417969 233.058594 146.707031 C 233.34375 145.996094 233.613281 145.289062 233.867188 144.589844 C 234.382812 143.195312 234.839844 141.84375 235.234375 140.605469 C 235.621094 139.363281 235.898438 138.234375 236.144531 137.277344 C 236.625 135.363281 236.871094 134.152344 236.871094 134.152344 " fill-opacity="1" fill-rule="nonzero"/></g><path fill="#000000" d="M 184.097656 151.292969 C 184.097656 151.292969 184.9375 151.265625 186.304688 151.316406 C 187.671875 151.363281 189.570312 151.488281 191.679688 151.804688 C 193.792969 152.121094 196.117188 152.632812 198.34375 153.476562 C 200.589844 154.320312 202.667969 155.492188 204.324219 157.136719 C 205.15625 157.957031 205.835938 158.855469 206.394531 159.800781 C 206.675781 160.273438 206.921875 160.753906 207.144531 161.246094 C 207.363281 161.738281 207.566406 162.234375 207.710938 162.734375 C 208.308594 164.726562 208.511719 166.769531 208.515625 168.589844 C 208.511719 169.042969 208.507812 169.488281 208.476562 169.910156 C 208.441406 170.332031 208.394531 170.738281 208.34375 171.121094 C 208.242188 171.890625 208.117188 172.574219 207.996094 173.140625 C 207.757812 174.28125 207.535156 174.960938 207.535156 174.960938 C 207.535156 174.960938 207.042969 175.320312 206.210938 175.734375 C 205.378906 176.152344 204.214844 176.625 202.832031 176.851562 C 201.453125 177.082031 199.898438 177.070312 198.316406 176.566406 C 196.730469 176.058594 195.148438 175.0625 193.59375 173.335938 C 192.050781 171.609375 190.773438 169.34375 189.671875 166.9375 C 189.082031 165.730469 188.550781 164.488281 188.070312 163.261719 C 187.828125 162.648438 187.601562 162.035156 187.386719 161.433594 C 187.167969 160.832031 186.976562 160.242188 186.753906 159.660156 C 185.902344 157.339844 185.261719 155.25 184.835938 153.742188 C 184.355469 152.230469 184.097656 151.292969 184.097656 151.292969 " fill-opacity="1" fill-rule="nonzero"/><path fill="#000000" d="M 235.597656 173.46875 C 235.597656 173.46875 234.773438 173.269531 233.402344 173.070312 C 232.035156 172.867188 230.125 172.667969 227.960938 172.644531 C 223.632812 172.59375 218.285156 173.261719 214.238281 175.910156 C 213.222656 176.574219 212.355469 177.335938 211.5625 178.148438 C 210.757812 178.957031 210.0625 179.828125 209.464844 180.730469 C 208.867188 181.628906 208.363281 182.554688 207.941406 183.476562 C 207.730469 183.9375 207.546875 184.398438 207.359375 184.851562 C 207.171875 185.300781 206.996094 185.746094 206.84375 186.183594 C 206.21875 187.929688 205.859375 189.523438 205.65625 190.6875 C 205.550781 191.269531 205.492188 191.742188 205.449219 192.070312 C 205.402344 192.394531 205.382812 192.578125 205.382812 192.578125 C 205.382812 192.578125 206.613281 194.699219 208.902344 196.339844 C 211.199219 197.964844 214.550781 199.140625 218.925781 196.765625 C 219.46875 196.464844 220.023438 196.117188 220.570312 195.726562 C 221.101562 195.332031 221.632812 194.890625 222.164062 194.417969 C 223.222656 193.46875 224.269531 192.371094 225.289062 191.1875 C 225.800781 190.59375 226.300781 189.980469 226.792969 189.347656 L 227.160156 188.875 L 227.507812 188.390625 C 227.734375 188.0625 227.957031 187.738281 228.183594 187.410156 C 229.078125 186.097656 229.921875 184.753906 230.699219 183.441406 C 231.085938 182.789062 231.460938 182.140625 231.8125 181.511719 C 232.160156 180.882812 232.464844 180.261719 232.761719 179.671875 C 233.351562 178.484375 233.863281 177.402344 234.28125 176.480469 C 235.125 174.644531 235.597656 173.46875 235.597656 173.46875 " fill-opacity="1" fill-rule="nonzero"/><path fill="#000000" d="M 179.496094 181.28125 C 179.496094 181.28125 180.34375 181.40625 181.710938 181.699219 C 183.074219 181.996094 184.957031 182.457031 187.019531 183.152344 C 189.078125 183.847656 191.320312 184.777344 193.398438 186.019531 C 194.4375 186.640625 195.433594 187.34375 196.347656 188.132812 C 196.808594 188.527344 197.246094 188.945312 197.652344 189.386719 C 198.066406 189.824219 198.453125 190.292969 198.785156 190.777344 C 200.140625 192.71875 200.84375 194.867188 201.140625 196.992188 C 201.210938 197.523438 201.261719 198.054688 201.289062 198.578125 C 201.304688 199.101562 201.285156 199.613281 201.257812 200.121094 C 201.195312 201.128906 201.0625 202.105469 200.890625 203.019531 C 200.542969 204.839844 200.058594 206.417969 199.578125 207.503906 C 199.117188 208.601562 198.765625 209.242188 198.765625 209.242188 C 198.765625 209.242188 196.511719 210.320312 193.691406 210.289062 C 190.867188 210.273438 187.480469 209.113281 185.054688 205.097656 C 183.828125 203.089844 183.007812 200.601562 182.253906 197.964844 C 181.53125 195.335938 181.097656 192.625 180.640625 190.140625 C 180.21875 187.664062 180.015625 185.472656 179.773438 183.863281 C 179.570312 182.261719 179.496094 181.28125 179.496094 181.28125 " fill-opacity="1" fill-rule="nonzero"/><path fill="#000000" d="M 227.195312 212.789062 C 227.195312 212.789062 226.398438 212.441406 225.0625 211.992188 C 223.726562 211.546875 221.84375 211 219.683594 210.589844 C 217.519531 210.175781 215.074219 209.902344 212.613281 209.972656 C 210.148438 210.046875 207.609375 210.441406 205.328125 211.40625 C 204.183594 211.886719 203.148438 212.484375 202.21875 213.164062 C 201.285156 213.84375 200.472656 214.609375 199.683594 215.394531 C 198.136719 216.972656 196.953125 218.734375 196.054688 220.394531 C 195.835938 220.8125 195.621094 221.214844 195.414062 221.605469 C 195.210938 221.996094 195.023438 222.375 194.851562 222.738281 C 194.511719 223.464844 194.238281 224.128906 194.023438 224.691406 C 193.597656 225.820312 193.40625 226.539062 193.40625 226.539062 C 193.40625 226.539062 193.628906 227.132812 194.105469 227.984375 C 194.34375 228.410156 194.644531 228.902344 195.015625 229.417969 C 195.382812 229.929688 195.800781 230.457031 196.300781 230.972656 C 197.300781 231.996094 198.589844 232.945312 200.234375 233.449219 C 201.875 233.945312 203.90625 234.019531 206.265625 233.191406 C 208.636719 232.371094 211.191406 230.75 213.695312 228.75 C 216.113281 226.714844 218.464844 224.289062 220.523438 221.945312 C 222.492188 219.570312 224.183594 217.285156 225.375 215.597656 C 225.984375 214.757812 226.414062 214.042969 226.722656 213.554688 C 227.027344 213.0625 227.195312 212.789062 227.195312 212.789062 " fill-opacity="1" fill-rule="nonzero"/><path fill="#000000" d="M 169.492188 210.550781 C 169.492188 210.550781 170.324219 210.828125 171.640625 211.371094 C 172.960938 211.914062 174.765625 212.71875 176.707031 213.785156 C 180.585938 215.921875 185.015625 219.117188 187.105469 223.542969 C 187.367188 224.09375 187.585938 224.652344 187.765625 225.214844 C 187.945312 225.773438 188.097656 226.34375 188.179688 226.898438 C 188.363281 228.011719 188.410156 229.125 188.351562 230.210938 C 188.296875 231.300781 188.140625 232.363281 187.917969 233.378906 C 187.804688 233.886719 187.683594 234.382812 187.535156 234.859375 C 187.378906 235.332031 187.210938 235.789062 187.035156 236.226562 C 186.332031 237.988281 185.523438 239.460938 184.890625 240.488281 C 184.574219 241.003906 184.300781 241.410156 184.109375 241.6875 C 183.90625 241.957031 183.785156 242.097656 183.785156 242.097656 C 183.785156 242.097656 181.304688 242.761719 178.464844 242.210938 C 175.621094 241.671875 172.4375 239.886719 170.765625 235.445312 C 170.554688 234.886719 170.382812 234.3125 170.210938 233.703125 C 170.039062 233.089844 169.890625 232.453125 169.761719 231.808594 C 169.507812 230.507812 169.335938 229.148438 169.230469 227.777344 C 169.175781 227.089844 169.140625 226.402344 169.117188 225.714844 C 169.109375 225.371094 169.09375 225.027344 169.074219 224.675781 C 169.058594 224.332031 169.046875 223.984375 169.03125 223.636719 C 168.988281 222.261719 168.992188 220.914062 169.023438 219.640625 C 169.039062 219.007812 169.0625 218.390625 169.089844 217.800781 C 169.121094 217.207031 169.117188 216.621094 169.136719 216.074219 C 169.171875 214.976562 169.222656 214 169.273438 213.179688 C 169.378906 211.546875 169.492188 210.550781 169.492188 210.550781 " fill-opacity="1" fill-rule="nonzero"/><path fill="#000000" d="M 211.660156 250.789062 C 211.660156 250.789062 210.925781 250.296875 209.664062 249.605469 C 208.402344 248.914062 206.613281 248.023438 204.511719 247.21875 C 200.308594 245.605469 194.878906 244.335938 189.980469 245.464844 C 187.484375 246.003906 185.351562 247.089844 183.550781 248.421875 C 183.101562 248.757812 182.671875 249.105469 182.265625 249.464844 C 181.851562 249.824219 181.4375 250.175781 181.054688 250.542969 C 180.28125 251.273438 179.589844 252.03125 178.980469 252.773438 C 177.75 254.257812 176.855469 255.710938 176.179688 256.734375 C 175.53125 257.777344 175.199219 258.464844 175.199219 258.464844 C 175.199219 258.464844 175.636719 260.996094 177.273438 263.445312 C 178.925781 265.878906 181.757812 268.257812 186.855469 267.511719 C 189.398438 267.128906 192.335938 266.015625 195.132812 264.394531 C 196.550781 263.597656 197.96875 262.703125 199.351562 261.761719 C 199.695312 261.523438 200.039062 261.28125 200.382812 261.042969 C 200.71875 260.800781 201.039062 260.550781 201.363281 260.300781 C 202.007812 259.796875 202.640625 259.292969 203.25 258.785156 C 205.699219 256.769531 207.871094 254.808594 209.308594 253.28125 C 210.78125 251.773438 211.660156 250.789062 211.660156 250.789062 " fill-opacity="1" fill-rule="nonzero"/><path fill="#000000" d="M 154.140625 238.011719 C 154.140625 238.011719 154.921875 238.445312 156.144531 239.230469 C 157.367188 240.015625 159.03125 241.15625 160.789062 242.585938 C 162.546875 244.019531 164.394531 245.746094 165.972656 247.722656 C 167.550781 249.695312 168.804688 251.886719 169.433594 254.289062 C 169.746094 255.488281 169.882812 256.679688 169.878906 257.847656 C 169.878906 258.429688 169.84375 259.007812 169.78125 259.574219 C 169.714844 260.140625 169.59375 260.683594 169.464844 261.222656 C 168.929688 263.371094 168.003906 265.34375 167.019531 267.011719 C 165.984375 268.640625 164.875 269.953125 164.042969 270.859375 C 163.203125 271.769531 162.632812 272.269531 162.632812 272.269531 C 162.632812 272.269531 161.992188 272.332031 161.003906 272.25 C 160.003906 272.164062 158.667969 271.933594 157.292969 271.390625 C 155.917969 270.84375 154.511719 269.980469 153.351562 268.65625 C 152.1875 267.324219 151.28125 265.539062 150.851562 263.15625 C 150.390625 260.746094 150.4375 257.972656 150.75 255.199219 C 150.832031 254.503906 150.914062 253.800781 150.996094 253.09375 C 151.082031 252.390625 151.183594 251.691406 151.292969 251.003906 C 151.515625 249.625 151.777344 248.289062 152.054688 247.03125 C 152.53125 244.464844 153.058594 242.222656 153.484375 240.621094 C 153.703125 239.828125 153.84375 239.160156 153.960938 238.710938 C 154.074219 238.265625 154.140625 238.011719 154.140625 238.011719 " fill-opacity="1" fill-rule="nonzero"/><path fill="#000000" d="M 188.972656 286.226562 C 188.972656 286.226562 188.332031 285.597656 187.195312 284.667969 C 186.058594 283.734375 184.433594 282.507812 182.476562 281.308594 C 178.5625 278.902344 173.332031 276.597656 168.203125 276.808594 C 167.558594 276.832031 166.945312 276.90625 166.324219 276.996094 C 165.703125 277.082031 165.101562 277.203125 164.511719 277.355469 C 163.339844 277.65625 162.234375 278.074219 161.203125 278.566406 C 160.164062 279.058594 159.214844 279.640625 158.308594 280.238281 C 157.394531 280.820312 156.554688 281.445312 155.796875 282.066406 C 155.035156 282.695312 154.359375 283.324219 153.765625 283.914062 C 153.175781 284.503906 152.675781 285.0625 152.242188 285.515625 C 151.386719 286.433594 150.921875 287.050781 150.921875 287.050781 C 150.921875 287.050781 150.871094 289.671875 152.042969 292.4375 C 152.632812 293.820312 153.527344 295.230469 154.929688 296.335938 C 156.332031 297.441406 158.238281 298.234375 160.875 298.34375 C 162.191406 298.398438 163.628906 298.277344 165.144531 298.019531 C 166.652344 297.753906 168.1875 297.308594 169.773438 296.785156 C 171.347656 296.257812 172.949219 295.628906 174.523438 294.949219 C 176.0625 294.234375 177.5625 293.460938 178.992188 292.683594 C 180.417969 291.902344 181.78125 291.132812 182.984375 290.382812 C 184.171875 289.613281 185.234375 288.898438 186.121094 288.28125 C 187.898438 287.050781 188.972656 286.226562 188.972656 286.226562 " fill-opacity="1" fill-rule="nonzero"/><path fill="#000000" d="M 133.707031 262.550781 C 133.707031 262.550781 134.410156 263.132812 135.484375 264.148438 C 136.558594 265.167969 138.011719 266.628906 139.5 268.394531 C 140.988281 270.164062 142.511719 272.242188 143.714844 274.519531 C 144.3125 275.652344 144.851562 276.859375 145.226562 278.0625 C 145.605469 279.269531 145.859375 280.511719 145.941406 281.773438 C 146.023438 283.03125 145.929688 284.25 145.703125 285.414062 C 145.472656 286.574219 145.136719 287.714844 144.648438 288.726562 C 143.695312 290.773438 142.390625 292.574219 141.078125 294.050781 C 139.734375 295.492188 138.367188 296.589844 137.359375 297.34375 C 136.34375 298.089844 135.671875 298.484375 135.671875 298.484375 C 135.671875 298.484375 135.511719 298.46875 135.226562 298.417969 C 134.941406 298.371094 134.539062 298.292969 134.042969 298.144531 C 133.0625 297.867188 131.761719 297.378906 130.492188 296.570312 C 129.222656 295.761719 127.976562 294.625 127.070312 293.070312 C 126.164062 291.515625 125.59375 289.546875 125.628906 287.089844 C 125.628906 284.582031 126.210938 281.8125 127.054688 279.101562 C 127.273438 278.429688 127.472656 277.71875 127.699219 277.035156 C 127.921875 276.351562 128.15625 275.671875 128.398438 275 C 128.882812 273.664062 129.410156 272.390625 129.914062 271.171875 C 130.875 268.695312 131.839844 266.558594 132.566406 265.042969 C 133.25 263.484375 133.707031 262.550781 133.707031 262.550781 " fill-opacity="1" fill-rule="nonzero"/><path fill="#000000" d="M 159.382812 317.523438 C 159.382812 317.523438 158.859375 316.765625 157.902344 315.613281 C 156.945312 314.464844 155.550781 312.921875 153.820312 311.347656 C 150.359375 308.1875 145.558594 304.871094 140.382812 304.101562 C 139.097656 303.921875 137.808594 303.859375 136.574219 303.9375 C 135.339844 304.015625 134.15625 304.21875 133.023438 304.519531 C 132.460938 304.664062 131.910156 304.839844 131.375 305.027344 C 131.105469 305.121094 130.84375 305.222656 130.582031 305.324219 C 130.320312 305.421875 130.058594 305.519531 129.800781 305.625 C 128.769531 306.035156 127.808594 306.5 126.929688 306.984375 C 125.167969 307.945312 123.742188 309 122.695312 309.738281 C 121.664062 310.496094 121.078125 311.03125 121.078125 311.03125 C 121.078125 311.03125 120.523438 313.652344 121.164062 316.652344 C 121.484375 318.148438 122.109375 319.742188 123.296875 321.117188 C 124.488281 322.496094 126.238281 323.65625 128.855469 324.269531 C 131.46875 324.875 134.738281 324.917969 138.082031 324.425781 C 139.761719 324.195312 141.488281 323.871094 143.195312 323.488281 L 143.832031 323.34375 C 144.042969 323.289062 144.25 323.230469 144.460938 323.175781 C 144.875 323.058594 145.289062 322.941406 145.699219 322.828125 C 146.523438 322.585938 147.332031 322.339844 148.121094 322.085938 C 149.703125 321.578125 151.214844 321.058594 152.574219 320.542969 C 153.910156 320 155.113281 319.484375 156.125 319.039062 C 158.144531 318.140625 159.382812 317.523438 159.382812 317.523438 " fill-opacity="1" fill-rule="nonzero"/><path fill="#000000" d="M 108.585938 283.164062 C 108.585938 283.164062 109.175781 283.882812 110.054688 285.109375 C 110.9375 286.339844 112.109375 288.082031 113.257812 290.140625 C 114.40625 292.199219 115.527344 294.578125 116.296875 297.09375 C 117.0625 299.609375 117.433594 302.207031 117.117188 304.777344 C 116.507812 309.945312 113.074219 313.707031 109.855469 316.125 C 108.222656 317.300781 106.652344 318.15625 105.496094 318.714844 C 104.917969 318.996094 104.441406 319.203125 104.109375 319.339844 C 103.773438 319.464844 103.582031 319.523438 103.582031 319.523438 C 103.582031 319.523438 100.984375 318.707031 98.765625 316.589844 C 97.652344 315.535156 96.628906 314.160156 96.023438 312.421875 C 95.417969 310.691406 95.230469 308.597656 95.742188 306.136719 C 95.867188 305.519531 96.039062 304.902344 96.238281 304.265625 C 96.429688 303.621094 96.65625 302.96875 96.910156 302.316406 C 97.421875 301.015625 98.039062 299.703125 98.71875 298.421875 C 99.058594 297.773438 99.425781 297.15625 99.78125 296.507812 C 100.132812 295.863281 100.5 295.222656 100.871094 294.597656 C 101.613281 293.351562 102.375 292.160156 103.121094 291.050781 C 103.5 290.503906 103.84375 289.933594 104.195312 289.410156 C 104.539062 288.882812 104.878906 288.378906 105.203125 287.902344 C 105.851562 286.953125 106.449219 286.117188 106.957031 285.425781 C 107.472656 284.746094 107.859375 284.152344 108.144531 283.769531 C 108.429688 283.378906 108.585938 283.164062 108.585938 283.164062 " fill-opacity="1" fill-rule="nonzero"/><path fill="#000000" d="M 123.613281 343.1875 C 123.613281 343.1875 123.234375 342.328125 122.5 340.988281 C 121.765625 339.652344 120.667969 337.839844 119.242188 335.921875 C 116.390625 332.078125 112.242188 327.859375 107.203125 326.070312 C 104.660156 325.136719 102.128906 324.894531 99.757812 325.0625 C 98.578125 325.164062 97.398438 325.285156 96.296875 325.511719 C 95.1875 325.730469 94.140625 326.015625 93.167969 326.335938 C 91.234375 327 89.550781 327.667969 88.375 328.246094 C 87.199219 328.816406 86.511719 329.242188 86.511719 329.242188 C 86.511719 329.242188 86.246094 329.875 85.988281 330.902344 C 85.855469 331.414062 85.726562 332.023438 85.636719 332.703125 C 85.539062 333.371094 85.476562 334.109375 85.484375 334.882812 C 85.507812 336.433594 85.816406 338.140625 86.738281 339.757812 C 87.199219 340.566406 87.8125 341.355469 88.628906 342.082031 C 89.445312 342.824219 90.449219 343.476562 91.695312 344.03125 C 92.945312 344.585938 94.378906 345.015625 95.9375 345.34375 C 96.714844 345.503906 97.527344 345.640625 98.363281 345.753906 C 98.777344 345.808594 99.203125 345.859375 99.628906 345.90625 C 100.054688 345.941406 100.480469 345.96875 100.914062 345.992188 C 102.640625 346.078125 104.425781 346.078125 106.207031 346.015625 C 107.101562 345.984375 107.992188 345.941406 108.867188 345.878906 C 109.738281 345.792969 110.59375 345.695312 111.433594 345.59375 C 114.792969 345.167969 117.882812 344.640625 120.058594 344.089844 C 122.25 343.574219 123.613281 343.1875 123.613281 343.1875 " fill-opacity="1" fill-rule="nonzero"/><path fill="#000000" d="M 79.476562 298.910156 C 79.476562 298.910156 79.925781 299.742188 80.566406 301.144531 C 81.207031 302.546875 82.039062 304.519531 82.785156 306.808594 C 84.28125 311.390625 85.40625 317.164062 83.773438 322.203125 C 83.570312 322.832031 83.324219 323.433594 83.050781 324.007812 C 82.777344 324.585938 82.46875 325.136719 82.125 325.636719 C 81.441406 326.652344 80.648438 327.566406 79.796875 328.382812 C 78.941406 329.199219 78.023438 329.921875 77.09375 330.5625 C 76.15625 331.175781 75.191406 331.675781 74.261719 332.113281 C 73.332031 332.550781 72.433594 332.910156 71.609375 333.203125 C 70.785156 333.496094 70.039062 333.734375 69.394531 333.875 C 68.117188 334.171875 67.3125 334.273438 67.3125 334.273438 C 67.3125 334.273438 64.878906 332.957031 63.082031 330.414062 C 62.179688 329.144531 61.429688 327.570312 61.167969 325.707031 C 60.90625 323.851562 61.128906 321.710938 62.121094 319.332031 C 62.617188 318.140625 63.28125 316.945312 64.054688 315.769531 C 64.824219 314.585938 65.691406 313.363281 66.621094 312.203125 C 67.546875 311.035156 68.542969 309.929688 69.53125 308.835938 C 70.511719 307.71875 71.5 306.664062 72.457031 305.6875 C 72.9375 305.199219 73.40625 304.734375 73.863281 304.289062 C 73.976562 304.179688 74.089844 304.070312 74.203125 303.960938 C 74.3125 303.847656 74.421875 303.734375 74.53125 303.625 C 74.746094 303.402344 74.960938 303.1875 75.167969 302.976562 C 75.996094 302.144531 76.753906 301.414062 77.390625 300.816406 C 78.03125 300.214844 78.554688 299.746094 78.917969 299.421875 C 79.097656 299.261719 79.238281 299.132812 79.332031 299.042969 C 79.425781 298.957031 79.476562 298.910156 79.476562 298.910156 " fill-opacity="1" fill-rule="nonzero"/><path fill="#000000" d="M 82.683594 361.929688 C 82.683594 361.929688 82.476562 360.992188 82.003906 359.507812 C 81.53125 358.023438 80.792969 355.992188 79.746094 353.796875 C 78.699219 351.597656 77.347656 349.238281 75.671875 347.085938 C 74.832031 346.003906 73.921875 345.003906 72.914062 344.046875 C 71.902344 343.101562 70.8125 342.25 69.636719 341.539062 C 68.457031 340.828125 67.25 340.296875 66.035156 339.902344 C 65.425781 339.707031 64.816406 339.546875 64.210938 339.421875 C 63.601562 339.285156 62.988281 339.160156 62.382812 339.074219 C 61.171875 338.898438 59.980469 338.828125 58.832031 338.839844 C 58.257812 338.84375 57.695312 338.871094 57.144531 338.914062 C 56.597656 338.953125 56.0625 339.015625 55.539062 339.058594 C 53.453125 339.261719 51.652344 339.660156 50.363281 340.011719 C 49.71875 340.1875 49.203125 340.347656 48.851562 340.46875 C 48.492188 340.578125 48.300781 340.644531 48.300781 340.644531 C 48.300781 340.644531 46.71875 342.917969 46.132812 346.042969 C 45.84375 347.605469 45.808594 349.378906 46.402344 351.179688 C 47 352.980469 48.230469 354.804688 50.515625 356.457031 C 51.085938 356.867188 51.710938 357.269531 52.378906 357.625 C 53.042969 357.980469 53.753906 358.3125 54.5 358.621094 C 55.996094 359.242188 57.636719 359.78125 59.359375 360.246094 C 61.085938 360.734375 62.867188 361.050781 64.664062 361.328125 C 66.457031 361.597656 68.261719 361.808594 70 361.964844 C 73.445312 362.191406 76.628906 362.199219 78.945312 362.164062 C 81.246094 362.0625 82.683594 361.929688 82.683594 361.929688 " fill-opacity="1" fill-rule="nonzero"/><path fill="#000000" d="M 47.316406 308.855469 C 47.316406 308.855469 47.601562 309.78125 47.960938 311.3125 C 48.320312 312.847656 48.757812 314.984375 49.046875 317.414062 C 49.625 322.273438 49.613281 328.332031 46.972656 333.054688 C 45.644531 335.367188 43.785156 337.117188 41.753906 338.441406 C 41.5 338.605469 41.242188 338.765625 40.984375 338.917969 C 40.722656 339.058594 40.460938 339.191406 40.195312 339.324219 C 39.671875 339.582031 39.136719 339.816406 38.605469 340.027344 C 37.542969 340.449219 36.480469 340.785156 35.464844 341.046875 C 34.957031 341.179688 34.460938 341.292969 33.980469 341.394531 C 33.5 341.480469 33.035156 341.539062 32.589844 341.597656 C 31.707031 341.703125 30.90625 341.761719 30.238281 341.792969 C 28.902344 341.855469 28.078125 341.800781 28.078125 341.800781 C 28.078125 341.800781 27.535156 341.359375 26.835938 340.550781 C 26.136719 339.757812 25.273438 338.539062 24.632812 337.082031 C 23.988281 335.613281 23.5625 333.878906 23.679688 331.972656 C 23.738281 331.019531 23.933594 330.023438 24.292969 329 C 24.660156 327.976562 25.191406 326.933594 25.929688 325.820312 C 26.660156 324.714844 27.5625 323.640625 28.570312 322.605469 C 29.074219 322.089844 29.605469 321.582031 30.15625 321.085938 C 30.703125 320.585938 31.277344 320.121094 31.851562 319.609375 C 33.011719 318.613281 34.21875 317.667969 35.425781 316.78125 C 36.027344 316.339844 36.628906 315.914062 37.226562 315.503906 C 37.820312 315.070312 38.402344 314.648438 38.976562 314.25 C 41.269531 312.640625 43.363281 311.375 44.863281 310.367188 C 46.371094 309.398438 47.316406 308.855469 47.316406 308.855469 " fill-opacity="1" fill-rule="nonzero"/><g clip-path="url(#7168cf6784)"><path fill="#000000" d="M 37.855469 372.585938 C 37.855469 372.585938 37.835938 371.605469 37.664062 370.023438 C 37.496094 368.445312 37.167969 366.265625 36.5625 363.859375 C 35.359375 359.035156 33.054688 353.277344 28.921875 349.539062 C 26.859375 347.703125 24.519531 346.382812 22.171875 345.582031 C 20.996094 345.167969 19.816406 344.898438 18.667969 344.660156 C 17.515625 344.414062 16.394531 344.253906 15.328125 344.15625 C 13.207031 343.960938 11.320312 344.046875 9.960938 344.074219 C 8.601562 344.132812 7.769531 344.257812 7.769531 344.257812 C 7.769531 344.257812 5.71875 346.234375 4.484375 349.253906 C 3.875 350.765625 3.472656 352.539062 3.695312 354.453125 C 3.921875 356.371094 4.773438 358.433594 6.722656 360.527344 C 8.667969 362.609375 11.539062 364.585938 14.796875 366.132812 C 16.425781 366.925781 18.152344 367.660156 19.898438 368.332031 C 21.640625 368.960938 23.40625 369.503906 25.113281 369.996094 C 25.96875 370.238281 26.808594 370.46875 27.625 370.679688 C 28.035156 370.785156 28.4375 370.886719 28.832031 370.988281 C 29.226562 371.070312 29.613281 371.15625 29.992188 371.234375 C 31.503906 371.546875 32.882812 371.800781 34.050781 372.003906 C 35.214844 372.207031 36.167969 372.355469 36.828125 372.449219 C 37.15625 372.496094 37.414062 372.53125 37.589844 372.558594 C 37.761719 372.574219 37.855469 372.585938 37.855469 372.585938 " fill-opacity="1" fill-rule="nonzero"/></g></g></g></g></g></g></svg>